<svg width="25" height="25" viewBox="0 0 25 25" fill="none" xmlns="http://www.w3.org/2000/svg">
<path d="M24.2303 2.87364C25.2566 3.94973 25.2566 5.66169 24.2303 6.73778L8.93315 22.0476C8.34668 22.5856 7.66246 23.0258 6.92937 23.2215L1.0158 24.9824C0.722562 25.0313 0.429326 24.9824 0.233836 24.7867C0.0383459 24.5911 -0.0593992 24.2976 0.0383459 24.0041L1.79776 18.0856C1.99325 17.3519 2.4331 16.6671 2.9707 16.0802L18.2678 0.770381C19.343 -0.256794 21.0535 -0.256794 22.1287 0.770381L24.2303 2.87364ZM16.7039 4.5856L20.4182 8.303L23.1062 5.66169C23.546 5.17256 23.546 4.43886 23.1062 3.99864L21.0047 1.89538C20.5648 1.45516 19.8317 1.45516 19.343 1.89538L16.7039 4.5856ZM15.5798 5.66169L4.09477 17.2052C3.70379 17.5476 3.41055 18.0367 3.26393 18.5258L1.94438 23.0747L6.48952 21.7541C6.97825 21.6074 7.46697 21.3139 7.80908 20.9226L19.2941 9.428L15.5798 5.66169Z" fill="#FCA61F"/>
</svg>
