<svg width="25" height="25" viewBox="0 0 25 25" fill="none" xmlns="http://www.w3.org/2000/svg">
<path d="M22.7656 12.4867L14.9844 20.7367C14.8438 20.9242 14.6094 20.971 14.4219 20.971C14.2344 20.971 14.0469 20.9242 13.9062 20.7835C13.5781 20.5023 13.5781 20.0335 13.8594 19.7523L20.4219 12.721H2.75C2.32812 12.721 2 12.3929 2 12.0179C2 11.6429 2.32812 11.221 2.75 11.221H20.4219L13.8594 4.23667C13.5781 3.95542 13.5781 3.48667 13.9062 3.20542C14.2344 2.92417 14.7031 2.92417 14.9844 3.25229L22.7656 11.5023C23.0469 11.7835 23.0469 12.2054 22.7656 12.4867Z" fill="#246CC9"/>
</svg>
