<svg width="25" height="25" viewBox="0 0 25 25" fill="none" xmlns="http://www.w3.org/2000/svg">
<path d="M24.7801 23.6816L17.8397 16.7969C19.4037 14.9902 20.2835 12.6953 20.2835 10.1562C20.2835 4.58984 15.6891 0 10.1173 0C4.49658 0 0 4.58984 0 10.1562C0 15.7715 4.54545 20.3125 10.1173 20.3125C12.61 20.3125 14.9071 19.4336 16.7155 17.8711L23.607 24.8047C23.8025 24.9512 23.998 25 24.2424 25C24.4379 25 24.6334 24.9512 24.7801 24.8047C25.0733 24.5117 25.0733 23.9746 24.7801 23.6816ZM10.1662 18.75C5.37634 18.75 1.56403 14.8926 1.56403 10.1562C1.56403 5.41992 5.37634 1.5625 10.1662 1.5625C14.9071 1.5625 18.7683 5.41992 18.7683 10.1562C18.7683 14.9414 14.9071 18.75 10.1662 18.75Z" fill="#A2A2A2"/>
</svg>
