<svg width="25" height="25" viewBox="0 0 25 25" fill="none" xmlns="http://www.w3.org/2000/svg">
<path d="M23.2143 3.125C23.6071 3.125 24 3.51562 24 3.90625C24 4.3457 23.6071 4.6875 23.2143 4.6875H22.2813L21.0536 22.1191C20.9063 23.7793 19.5313 25 17.9107 25H8.04018C6.41964 25 5.04464 23.7793 4.89732 22.1191L3.66964 4.6875H2.78571C2.34375 4.6875 2 4.3457 2 3.90625C2 3.51562 2.34375 3.125 2.78571 3.125H7.45089L8.72768 1.12305C9.12054 0.439453 9.90625 0 10.692 0H15.2589C16.0446 0 16.8304 0.439453 17.2232 1.12305L18.5 3.125H23.2143ZM10.692 1.5625C10.4464 1.5625 10.2009 1.70898 10.0536 1.95312L9.26786 3.125H16.683L15.8973 1.95312C15.75 1.70898 15.5045 1.5625 15.2589 1.5625H10.692ZM20.7098 4.6875H5.24107L6.46875 22.0215C6.51786 22.8027 7.20536 23.4375 8.04018 23.4375H17.9107C18.7455 23.4375 19.433 22.8027 19.4821 22.0215L20.7098 4.6875Z" fill="#C23329"/>
</svg>
